<svg width="26" height="26" viewBox="0 0 26 26" fill="none" xmlns="http://www.w3.org/2000/svg">
                  <g clip-path="url(#clip0_2_197)">
                    <path d="M22.3397 20.0139C22.2828 18.7444 21.8542 17.9197 21.0783 17.2047C19.1405 15.4151 16.8045 13.7069 14.6534 12.1773C13.6561 11.4684 12.547 10.532 11.3912 10.0994C9.76218 9.48796 7.92187 9.70531 6.17703 9.95312C5.41531 10.0608 4.64953 10.1826 3.89796 10.3594C3.02859 10.5666 1.99671 10.8123 1.25937 11.3344C0.597183 11.8036 0.678433 12.3906 1.00343 12.935C1.05218 13.1848 1.00546 13.4225 1.0075 13.6764C1.01156 14.1558 0.956714 14.6351 0.840933 15.0983C0.767808 15.3847 0.668277 15.6609 0.574839 15.9412C0.20312 17.0259 1.2289 17.9359 1.98859 18.5636C2.41515 18.915 2.87015 19.2319 3.29875 19.5812C4.96437 20.9361 6.67062 22.1609 8.37484 23.4508C10.3716 24.9641 11.1333 25.4901 13.6256 24.6391C14.298 24.4095 14.9866 24.2267 15.6752 24.05C16.6502 23.8001 17.9461 23.5625 18.8947 23.2294C19.8555 22.8922 21.0966 22.4453 21.8014 21.6755C22.1548 21.2916 22.3052 20.7411 22.3072 20.2292C22.3316 20.1662 22.3437 20.0972 22.3397 20.0139Z" fill="white" />
                    <path d="M2.71576 11.8259C3.67451 11.4217 7.44248 10.8367 8.27326 10.7413C8.9781 10.66 9.86576 10.5463 10.5645 10.6499C10.8469 10.6966 11.7528 11.1699 12.6933 11.8097C14.6169 13.1178 19.6909 16.9224 20.0119 17.2169C20.0972 17.2961 20.7939 17.9603 20.4425 17.9563C20.087 17.9522 19.7315 17.9766 19.3801 18.0172C18.7789 18.0883 15.2709 18.9231 13.6784 19.3131C13.3636 19.3903 12.5104 19.5488 12.2748 19.5955C11.6086 19.7316 11.0622 19.5183 10.5178 19.1364C9.38232 18.3442 2.31764 12.9005 2.13279 12.5166C1.99873 12.2444 2.26889 12.0149 2.71576 11.8259Z" fill="#BDCF46" />
                    <path d="M22.5123 18.6814C22.2929 18.1046 21.7729 17.6475 21.3037 17.2128C19.1567 15.2303 16.9 13.6094 14.5356 11.9031C13.9283 11.4644 13.3331 11.0419 12.7014 10.6377C12.3886 10.4386 12.0006 10.27 11.6675 10.1035C10.5665 9.55299 9.42091 9.59362 8.2306 9.72971C6.06326 9.97752 3.96904 10.0506 1.88904 10.7616C1.31013 10.9606 0.743413 11.2369 0.60935 11.9336C0.556538 12.216 0.712944 12.6933 0.814506 12.9492C0.893725 13.1442 0.227475 15.5858 0.127944 15.8783C-0.119869 16.6075 0.237631 17.2616 0.735288 17.808C1.00748 18.1086 8.67341 24.0175 8.86638 24.1577C9.59763 24.696 10.1765 25.0636 10.7961 25.2424C11.5801 25.4678 12.4272 25.3825 13.7272 24.9397C14.2492 24.761 18.4518 23.7189 20.7898 22.7947C21.5861 22.4799 22.0431 22.0574 22.23 21.8522C22.4575 21.6044 22.6037 21.2896 22.6829 20.9585C22.7317 20.7574 22.7561 20.5481 22.7581 20.345C22.7784 20.2821 22.6708 19.0978 22.5123 18.6814ZM2.71576 11.826C3.67451 11.4217 7.44248 10.8367 8.27326 10.7413C8.9781 10.66 9.86576 10.5463 10.5645 10.6499C10.8468 10.6966 11.7528 11.1699 12.6933 11.8097C14.6169 13.1178 19.6909 16.9224 20.0118 17.2169C20.0972 17.2961 20.7939 17.9603 20.4425 17.9563C20.087 17.9522 19.7315 17.9766 19.3801 18.0172C18.7789 18.0883 15.2709 18.9231 13.6784 19.3131C13.3636 19.3903 12.5104 19.5488 12.2748 19.5955C11.6086 19.7316 11.0622 19.5183 10.5178 19.1364C9.38232 18.3442 2.31763 12.9005 2.13279 12.5166C1.99873 12.2444 2.26888 12.0149 2.71576 11.826ZM1.90732 17.4667C1.71029 17.2677 0.936381 16.7558 1.14763 16.1099C1.37513 15.4111 1.59248 14.2797 1.64123 13.5342C2.51466 14.235 10.6478 20.4425 11.1515 20.5867C11.4664 21.5658 11.4704 22.6647 11.1211 23.6336C11.0723 23.7677 11.0337 23.8977 10.9769 24.0277C10.7534 23.9444 10.534 23.8266 10.2984 23.6824C9.9206 23.4467 2.56544 18.131 1.90732 17.4667ZM20.867 21.5394C20.1358 22.0614 19.0328 22.2706 18.3097 22.4839C16.7619 22.943 15.1998 23.3614 13.6358 23.7596C13.1706 23.8774 12.6994 24.0196 12.224 24.0988C12.3114 23.9058 12.3865 23.7067 12.4394 23.4975C12.5795 22.945 12.6059 22.3519 12.545 21.7852C12.5125 21.4947 12.5023 20.9646 12.4333 20.6842C12.5145 20.6781 14.43 20.2252 15.9433 19.8392C17.4829 19.4472 19.2684 18.9049 20.3389 18.8825C20.6587 18.8777 20.9701 18.9856 21.2184 19.1872C21.5922 19.4939 21.6775 20.0606 21.584 20.5116C21.4967 20.9544 21.2265 21.2835 20.867 21.5394Z" fill="#2F2F2F" />
                    <path d="M4.84658 16.1606C6.00845 17.0524 9.04314 19.37 10.4366 20.4344C10.8794 20.7716 11.377 21.121 12.3866 20.9381C13.3961 20.7553 19.693 19.1222 19.693 19.1222C20.2678 18.9719 20.9036 18.9313 21.4927 19.0105C21.706 19.0389 21.9152 19.106 22.1061 19.2075C22.1731 19.2441 22.2442 19.2806 22.3052 19.3294C22.3377 19.3558 22.36 19.3903 22.3945 19.4147C22.8597 19.7295 22.5753 18.785 22.5225 18.657C22.3945 18.3463 22.2178 18.0558 22.0147 17.7877C21.8514 17.5759 21.6707 17.3782 21.4744 17.1966C19.3294 15.2161 16.9569 13.5017 14.5925 11.7955C13.9852 11.3567 13.386 10.9017 12.7542 10.4975C12.4414 10.2985 12.1245 10.1014 11.7935 9.93486C10.6905 9.38439 9.45751 9.43923 8.2672 9.57533C6.09986 9.82314 3.93251 9.94502 1.85251 10.658C1.27158 10.857 0.570795 11.2288 0.440795 11.9295C0.387983 12.2119 0.387983 12.7035 0.885639 13.1442C1.2472 13.4652 3.31501 14.9845 4.84658 16.1606Z" fill="#BDCF46" />
                    <path d="M25.5349 14.6169C25.478 13.3473 25.0494 12.5226 24.2735 11.8076C22.3357 10.0181 19.9997 8.30983 17.8466 6.7803C16.8492 6.0714 15.7402 5.13499 14.5844 4.70233C12.9553 4.09093 11.115 4.30827 9.36815 4.55608C8.60643 4.66374 7.84065 4.78562 7.09112 4.96233C6.22175 5.16749 5.18784 5.4153 4.4505 5.93733C3.78831 6.40655 3.86956 6.99562 4.19456 7.53796C4.24331 7.7878 4.19659 8.02546 4.19862 8.27937C4.20268 8.75874 4.14784 9.23812 4.03206 9.70124C3.95893 9.98765 3.8594 10.2639 3.76596 10.5442C3.39628 11.6289 4.42206 12.5369 5.18378 13.1666C5.61034 13.518 6.06534 13.8348 6.49393 14.1842C8.15753 15.5391 9.86581 16.7639 11.568 18.0537C13.5647 19.567 14.3264 20.0931 16.8188 19.242C17.4911 19.0125 18.1797 18.8297 18.8683 18.653C19.8433 18.4031 21.1372 18.1655 22.0878 17.8323C23.0486 17.4951 24.2897 17.0483 24.9946 16.2784C25.346 15.8945 25.4983 15.3441 25.5024 14.8322C25.5267 14.7692 25.5389 14.6981 25.5349 14.6169Z" fill="white" />
                    <path d="M5.91094 6.42891C6.86969 6.0247 10.6356 5.4397 11.4684 5.34423C12.1733 5.26298 13.0589 5.14923 13.7597 5.25282C14.042 5.29954 14.948 5.77282 15.8884 6.41266C17.812 7.72079 22.8861 11.5253 23.205 11.8199C23.2903 11.8991 23.9891 12.5633 23.6377 12.5592C23.2822 12.5552 22.9288 12.5795 22.5753 12.6202C21.9761 12.6913 18.4661 13.5261 16.8736 13.9161C16.5588 13.9933 15.7056 14.1517 15.47 14.1984C14.8038 14.3345 14.2573 14.1213 13.7109 13.7394C12.5755 12.9472 5.51078 7.50345 5.32594 7.11954C5.19391 6.84735 5.46406 6.61782 5.91094 6.42891Z" fill="#BDCF46" />
                    <path d="M25.7075 13.6866C25.4881 13.1077 24.9681 12.6506 24.4989 12.218C22.3539 10.2375 20.0972 8.61455 17.7308 6.91033C17.1214 6.47158 16.5283 6.04908 15.8966 5.6469C15.5817 5.44783 15.1958 5.27924 14.8627 5.11268C13.7577 4.56221 12.6161 4.60283 11.4238 4.73893C9.25845 4.98674 7.16423 5.05986 5.08423 5.77283C4.50532 5.9719 3.93657 6.24611 3.80454 6.94486C3.75173 7.22721 3.9061 7.70455 4.0097 7.96049C4.08892 8.15549 3.42267 10.5971 3.32313 10.8875C3.07532 11.6167 3.43282 12.2708 3.93048 12.8192C4.20267 13.1199 11.8686 19.0288 12.0616 19.1689C12.7928 19.7052 13.3717 20.0749 13.9913 20.2516C14.7733 20.475 15.6224 20.3917 16.9224 19.9489C17.4444 19.7702 21.647 18.7281 23.985 17.806C24.7813 17.4911 25.2383 17.0666 25.4252 16.8635C25.6527 16.6156 25.7989 16.3008 25.8802 15.9697C25.9289 15.7686 25.9533 15.5594 25.9553 15.3563C25.9736 15.2872 25.8659 14.103 25.7075 13.6866ZM5.91095 6.83111C6.8697 6.4269 10.6356 5.84393 11.4684 5.74643C12.1733 5.66315 13.0589 5.55143 13.7597 5.65502C14.042 5.70174 14.948 6.17502 15.8884 6.81486C17.812 8.12299 22.8861 11.9275 23.205 12.2221C23.2903 12.3013 23.9891 12.9655 23.6377 12.9614C23.2822 12.9574 22.9288 12.9797 22.5753 13.0224C21.9761 13.0935 18.4661 13.9303 16.8736 14.3183C16.5588 14.3955 15.7056 14.5519 15.47 14.6006C14.8038 14.7367 14.2574 14.5235 13.7109 14.1436C12.5755 13.3514 5.51079 7.90768 5.32595 7.52377C5.19392 7.24955 5.46407 7.02002 5.91095 6.83111ZM5.10251 12.4719C4.90548 12.2728 4.13157 11.763 4.34282 11.115C4.57032 10.4163 4.78767 9.2869 4.83438 8.5394C5.70782 9.23815 13.8409 15.4477 14.3447 15.5919C14.6595 16.571 14.6636 17.6699 14.3142 18.6367C14.2655 18.7708 14.2269 18.9028 14.17 19.0308C13.9466 18.9475 13.7272 18.8297 13.4916 18.6855C13.1158 18.4519 5.76063 13.1361 5.10251 12.4719ZM24.0622 16.5446C23.3309 17.0646 22.228 17.2758 21.5069 17.4911C19.9591 17.9502 18.397 18.3666 16.833 18.7667C16.3658 18.8866 15.8966 19.0267 15.4213 19.106C15.5086 18.913 15.5817 18.7139 15.6366 18.5047C15.7767 17.9502 15.8031 17.3591 15.7442 16.7924C15.7117 16.5019 15.6995 15.9738 15.6305 15.6914C15.7117 15.6853 17.6272 15.2324 19.1405 14.8464C20.6802 14.4544 22.4636 13.9121 23.5381 13.8897C23.9627 13.8816 24.2755 14.0786 24.4156 14.1944C24.7894 14.5011 24.8767 15.0678 24.7833 15.5188C24.6919 15.9596 24.4217 16.2886 24.0622 16.5446Z" fill="#2F2F2F" />
                    <path d="M8.04172 10.7636C9.2036 11.6553 12.2383 13.973 13.6338 15.0374C14.0766 15.3766 14.5742 15.7239 15.5817 15.5411C16.5892 15.3583 22.8881 13.7252 22.8881 13.7252C23.4754 13.5734 24.0863 13.5355 24.6878 13.6135C24.9031 13.6419 25.1123 13.7089 25.3013 13.8105C25.3683 13.847 25.4394 13.8836 25.5003 13.9324C25.5328 13.9588 25.5552 13.9933 25.5897 14.0156C26.0548 14.3305 25.7684 13.388 25.7156 13.258C25.5877 12.9472 25.4109 12.6567 25.2078 12.3886C25.0445 12.1769 24.8638 11.9791 24.6675 11.7975C22.5225 9.81908 20.152 8.1047 17.7856 6.39845C17.1763 5.9597 16.5791 5.5047 15.9473 5.10048C15.6345 4.90142 15.3177 4.70439 14.9866 4.53783C13.8836 3.98736 12.6506 4.0422 11.4603 4.17829C9.29297 4.42611 7.12563 4.54798 5.04563 5.26095C4.46469 5.46001 3.76594 5.83376 3.63391 6.53251C3.5811 6.81486 3.5811 7.30642 4.07875 7.7472C4.44235 8.06814 6.51016 9.58751 8.04172 10.7636Z" fill="#006CA2" />
                    <path d="M23.5483 11.1637C23.4914 9.89421 23.0649 9.06952 22.2869 8.35452C20.3491 6.56499 18.0131 4.85671 15.862 3.32718C14.8647 2.61827 13.7556 1.68187 12.5999 1.24921C10.9708 0.637803 9.12845 0.855147 7.38564 1.10296C6.62189 1.21062 5.85611 1.33249 5.10658 1.50921C4.2372 1.7164 3.2033 1.96218 2.46595 2.48421C1.80377 2.95343 1.88502 3.54249 2.21002 4.08483C2.25674 4.33468 2.21205 4.57233 2.21408 4.82624C2.21814 5.30562 2.1633 5.78499 2.04549 6.24812C1.97439 6.53452 1.87486 6.81077 1.77939 7.09108C1.4097 8.17577 2.43549 9.08374 3.1972 9.71343C3.62377 10.0648 4.07877 10.3817 4.50736 10.7311C6.17095 12.0859 7.87924 13.3108 9.58142 14.6006C11.5781 16.1139 12.3419 16.64 14.8342 15.7889C15.5066 15.5594 16.1931 15.3766 16.8838 15.1998C17.8588 14.95 19.1527 14.7123 20.1013 14.3792C21.0641 14.042 22.3031 13.5951 23.01 12.8253C23.3614 12.4414 23.5138 11.8909 23.5178 11.3791C23.5402 11.3161 23.5524 11.245 23.5483 11.1637Z" fill="white" />
                    <path d="M3.92438 2.97579C4.88313 2.57157 8.6511 1.98657 9.48188 1.8911C10.1867 1.80985 11.0744 1.6961 11.7731 1.7997C12.0534 1.84641 12.9614 2.3197 13.9019 2.95954C15.8255 4.26766 20.8995 8.0722 21.2184 8.36673C21.3038 8.44595 22.0005 9.11017 21.6491 9.1061C21.2936 9.10204 20.9402 9.12642 20.5867 9.16704C19.9855 9.23813 16.4775 10.073 14.885 10.463C14.5702 10.5402 13.717 10.6986 13.4814 10.7453C12.8152 10.8814 12.2688 10.6681 11.7223 10.2863C10.5869 9.49407 3.52219 4.05032 3.33735 3.66641C3.20938 3.3922 3.47751 3.16266 3.92438 2.97579Z" fill="#BDCF46" />
                    <path d="M23.7209 9.82924C23.5016 9.25236 22.9836 8.79533 22.5123 8.36064C20.3673 6.38018 18.1106 4.75924 15.7442 3.05299C15.1369 2.61424 14.5417 2.19174 13.91 1.78752C13.5972 1.58846 13.2092 1.41986 12.8761 1.2533C11.7731 0.702833 10.6295 0.743458 9.43922 0.879551C7.27187 1.12736 5.17969 1.20049 3.09766 1.91346C2.51875 2.11252 1.95 2.38674 1.81797 3.08549C1.76516 3.36783 1.91953 3.84518 2.02312 4.10111C2.10234 4.29611 1.43406 6.73768 1.33656 7.03018C1.08875 7.7594 1.44625 8.41346 1.94391 8.95986C2.21609 9.26049 9.88203 15.1694 10.075 15.3096C10.8062 15.8478 11.3852 16.2155 12.0047 16.3922C12.7867 16.6177 13.6358 16.5324 14.9358 16.0896C15.4598 15.9108 19.6605 14.8688 21.9984 13.9446C22.7947 13.6297 23.2517 13.2072 23.4386 13.0021C23.6661 12.7542 23.8123 12.4394 23.8936 12.1083C23.9423 11.9072 23.9647 11.698 23.9687 11.4949C23.987 11.4319 23.8794 10.2477 23.7209 9.82924ZM3.92437 2.9758C4.88312 2.57158 8.65109 1.98658 9.48187 1.89111C10.1867 1.80986 11.0744 1.69611 11.7731 1.79971C12.0534 1.84643 12.9614 2.31971 13.9019 2.95955C15.8255 4.26768 20.8995 8.07221 21.2184 8.36674C21.3037 8.44596 22.0005 9.11018 21.6491 9.10611C21.2936 9.10205 20.9402 9.12643 20.5867 9.16705C19.9855 9.23815 16.4775 10.073 14.885 10.463C14.5702 10.5402 13.717 10.6986 13.4814 10.7453C12.8152 10.8814 12.2687 10.6681 11.7223 10.2863C10.5869 9.49408 3.52219 4.05033 3.33734 3.66643C3.20937 3.39221 3.4775 3.16268 3.92437 2.9758ZM3.11594 8.61658C2.91891 8.41752 2.145 7.90565 2.35625 7.25971C2.58375 6.56096 2.80109 5.42955 2.84984 4.68408C3.72125 5.38486 11.8544 11.5924 12.3602 11.7366C12.675 12.7156 12.6791 13.8146 12.3297 14.7835C12.2809 14.9175 12.2423 15.0475 12.1855 15.1775C11.96 15.0942 11.7427 14.9764 11.507 14.8322C11.1312 14.5966 3.77406 9.27877 3.11594 8.61658ZM22.0777 12.6872C21.3444 13.2072 20.2434 13.4185 19.5203 13.6317C17.9725 14.0908 16.4105 14.5092 14.8464 14.9074C14.3812 15.0252 13.91 15.1674 13.4347 15.2466C13.522 15.0536 13.5972 14.8546 13.65 14.6453C13.7902 14.0928 13.8166 13.4997 13.7556 12.933C13.7231 12.6425 13.713 12.1124 13.6439 11.83C13.7252 11.8239 15.6406 11.371 17.1539 10.9871C18.6936 10.595 20.4791 10.0527 21.5516 10.0303C21.8714 10.0255 22.1828 10.1334 22.4311 10.335C22.8048 10.6417 22.8902 11.2085 22.7967 11.6594C22.7053 12.1022 22.4352 12.4333 22.0777 12.6872Z" fill="#2F2F2F" />
                    <path d="M6.05515 7.30845C7.21906 8.20017 10.2517 10.5178 11.6472 11.5822C12.09 11.9214 12.5876 12.2688 13.5951 12.086C14.6026 11.9031 20.9016 10.27 20.9016 10.27C21.4764 10.1197 22.1122 10.0791 22.7012 10.1583C22.9145 10.1867 23.1237 10.2538 23.3147 10.3553C23.3817 10.3919 23.4528 10.4285 23.5137 10.4772C23.5462 10.5036 23.5686 10.5381 23.6031 10.5625C24.0683 10.8774 23.7819 9.93283 23.7291 9.80486C23.6011 9.49408 23.4244 9.20361 23.2212 8.93548C23.0587 8.72423 22.878 8.5272 22.683 8.34439C20.538 6.36392 18.1655 4.64954 15.8011 2.94329C15.1937 2.50454 14.5945 2.04954 13.9608 1.64533C13.648 1.44829 13.3331 1.25126 13 1.0847C11.897 0.534232 10.6641 0.589076 9.47374 0.72517C7.3064 0.975014 5.14109 1.09689 3.06109 1.80783C2.48015 2.00689 1.77937 2.38064 1.64734 3.07939C1.59453 3.36173 1.59453 3.85329 2.09218 4.29408C2.45578 4.61501 4.52359 6.13439 6.05515 7.30845Z" fill="#ED6C30" />
                    <path d="M8.05389 4.9847C7.87717 4.96439 7.70655 4.91361 7.54405 4.81814C7.21702 4.62517 6.84936 4.3408 6.6442 4.04017C6.40248 3.68673 6.68483 3.55673 7.0403 3.46736C7.53186 3.34548 8.03764 3.26627 8.54342 3.19923C9.06342 3.13017 9.59561 3.08955 10.1156 3.02048C10.5137 2.96564 10.922 2.92908 11.3161 2.89048C11.5537 2.87017 11.8056 2.82955 12.0392 2.90267C12.2789 2.97783 12.4942 3.14439 12.677 3.3008C12.8801 3.47548 13.0995 3.63595 13.2681 3.84111C13.3148 3.90002 13.3676 3.95486 13.3839 4.03002C13.394 4.0747 13.3981 4.10314 13.3737 4.14173C13.3067 4.23923 13.1259 4.30627 13.0122 4.31845C12.3825 4.38955 11.7873 4.56627 11.1678 4.67798C10.6214 4.77548 10.0547 4.79986 9.50217 4.86486C9.21983 4.89939 8.93545 4.9197 8.65108 4.94814C8.45202 4.97048 8.25702 5.00908 8.05389 4.9847Z" fill="white" />
                  </g>
                  <defs>
                    <clipPath id="clip0_2_197">
                      <rect width="26" height="26" fill="white" />
                    </clipPath>
                  </defs>
                </svg>
